<svg xmlns="http://www.w3.org/2000/svg" enable-background="new 0 0 382.785 382.785" viewBox="0 0 382.785 382.785"><path d="M64.463 139.058c-1.221-.642-2.733-.174-3.376 1.05l-9.159 17.423c-.643 1.222-.173 2.733 1.05 3.376.371.195.769.288 1.161.288.898 0 1.768-.486 2.215-1.338l9.159-17.423C66.156 141.212 65.686 139.7 64.463 139.058zM50.066 171.82c.643-1.222.173-2.733-1.05-3.376-1.221-.643-2.733-.174-3.376 1.05-11.674 22.206-10.899 48.282 2.072 69.754.47.777 1.295 1.207 2.142 1.207.44 0 .887-.116 1.291-.36 1.182-.714 1.561-2.251.847-3.433C39.934 216.702 39.214 192.462 50.066 171.82z"/><path d="M365.859,177.877c-7.279-35.771-28.052-66.565-58.49-86.711c-30.438-20.145-66.899-27.23-102.672-19.953
		c-17.51,3.563-33.823,10.367-48.283,19.948L108.489,0L25.07,158.68c-15.493,29.472-14.465,64.082,2.751,92.582
		s47.372,45.515,80.668,45.515c6.633,0,13.22-0.679,19.617-2.01l-70.545,70.968c-1.884,1.895-2.917,4.408-2.909,7.079
		s1.055,5.18,2.949,7.062c1.886,1.876,4.39,2.909,7.051,2.909c2.683,0,5.201-1.051,7.091-2.952l70.965-71.371
		c24.182,20.878,55.556,33.337,89.199,33.336c9.108,0,18.29-0.929,27.288-2.759c35.77-7.279,66.563-28.052,86.71-58.491
		C366.051,250.11,373.137,213.647,365.859,177.877z M108.489,291.776c-31.529,0-60.086-16.112-76.388-43.1
		c-16.303-26.988-17.276-59.762-2.605-87.671l78.993-150.26l43.778,83.272c-4.936,3.542-9.633,7.423-14.069,11.619
		c-0.132,0.124-0.265,0.247-0.397,0.372c-1.315,1.254-2.604,2.54-3.872,3.85c-0.222,0.229-0.444,0.457-0.664,0.687
		c-1.208,1.266-2.393,2.557-3.555,3.873c-0.24,0.272-0.479,0.545-0.717,0.819c-1.149,1.322-2.278,2.666-3.38,4.037
		c-0.204,0.253-0.404,0.51-0.606,0.765c-1.129,1.424-2.237,2.869-3.314,4.343c-0.124,0.17-0.245,0.343-0.368,0.514
		c-1.14,1.576-2.257,3.174-3.337,4.806c-20.146,30.44-27.232,66.902-19.954,102.671c0.245,1.203,0.511,2.398,0.787,3.589
		c0.073,0.316,0.15,0.632,0.226,0.948c0.223,0.933,0.456,1.863,0.698,2.788c0.075,0.287,0.149,0.575,0.226,0.861
		c0.638,2.375,1.339,4.722,2.098,7.04c0.104,0.319,0.212,0.637,0.319,0.955c0.286,0.853,0.581,1.701,0.884,2.545
		c0.125,0.351,0.249,0.702,0.377,1.052c0.387,1.053,0.784,2.102,1.196,3.142c0.201,0.51,0.414,1.015,0.622,1.522
		c0.215,0.523,0.428,1.046,0.649,1.566c0.292,0.688,0.59,1.373,0.893,2.057c0.1,0.224,0.2,0.446,0.301,0.669
		c4.679,10.413,10.64,20.233,17.772,29.164C119.651,291.271,114.088,291.776,108.489,291.776z M68.197,376.309
		c-0.944,0.951-2.204,1.473-3.545,1.473c-1.33,0-2.582-0.519-3.525-1.457c-1.955-1.944-1.964-5.122-0.021-7.077l70.789-71.202
		c2.277,2.446,4.637,4.811,7.082,7.082L68.197,376.309z M341.735,277.788c-19.408,29.326-49.076,49.339-83.536,56.351
		c-8.672,1.765-17.518,2.659-26.292,2.659c-51.561,0.002-97.601-30.364-118.989-75.46c-0.055-0.116-0.108-0.232-0.162-0.348
		c-0.559-1.187-1.096-2.386-1.62-3.593c-0.236-0.545-0.474-1.088-0.702-1.636c-0.205-0.49-0.404-0.984-0.604-1.478
		c-0.305-0.757-0.604-1.517-0.895-2.28c-0.126-0.331-0.256-0.66-0.38-0.992c-0.416-1.118-0.817-2.243-1.203-3.372
		c-0.088-0.256-0.171-0.514-0.258-0.771c-0.33-0.986-0.649-1.977-0.956-2.972c-0.074-0.239-0.149-0.477-0.222-0.717
		c-0.363-1.199-0.71-2.404-1.038-3.614c-0.042-0.153-0.08-0.307-0.121-0.46c-0.283-1.058-0.551-2.12-0.808-3.186
		c-0.071-0.297-0.143-0.594-0.212-0.892c-0.283-1.213-0.555-2.429-0.803-3.65c-7.013-34.46-0.186-69.589,19.224-98.915
		c0.053-0.081,0.109-0.159,0.163-0.24c0.545-0.82,1.096-1.634,1.657-2.439c0.151-0.217,0.307-0.429,0.46-0.645
		c0.473-0.671,0.948-1.34,1.432-2.001c0.15-0.204,0.304-0.404,0.455-0.607c0.495-0.667,0.991-1.332,1.498-1.988
		c0.145-0.187,0.293-0.371,0.438-0.557c0.519-0.666,1.041-1.329,1.571-1.983c0.143-0.177,0.29-0.349,0.434-0.525
		c0.538-0.656,1.078-1.309,1.627-1.953c0.153-0.179,0.308-0.355,0.462-0.533c0.543-0.63,1.089-1.258,1.643-1.877
		c0.176-0.197,0.355-0.39,0.533-0.586c0.533-0.589,1.069-1.174,1.611-1.752c0.213-0.227,0.429-0.45,0.644-0.675
		c0.509-0.534,1.02-1.066,1.537-1.59c0.263-0.267,0.53-0.531,0.796-0.796c0.469-0.468,0.939-0.934,1.414-1.394
		c0.328-0.317,0.66-0.631,0.991-0.945c0.414-0.392,0.829-0.784,1.248-1.171c0.405-0.373,0.813-0.742,1.222-1.11
		c0.347-0.312,0.694-0.624,1.044-0.933c0.488-0.43,0.981-0.855,1.476-1.278c0.274-0.234,0.548-0.468,0.823-0.7
		c0.575-0.482,1.154-0.96,1.737-1.433c0.198-0.161,0.397-0.322,0.596-0.482c0.656-0.525,1.317-1.045,1.983-1.558
		c0.134-0.103,0.268-0.206,0.402-0.309c0.724-0.553,1.453-1.098,2.189-1.636c0.085-0.062,0.17-0.124,0.255-0.186
		c0.771-0.561,1.548-1.114,2.333-1.658c14.503-10.072,31.038-17.184,48.862-20.811c8.834-1.798,17.712-2.687,26.524-2.687
		c25.565,0,50.583,7.476,72.392,21.909c29.325,19.408,49.338,49.076,56.35,83.537C367.971,213.334,361.144,248.463,341.735,277.788z
		"/><path d="M299.75,102.681c-20.208-13.373-43.568-20.44-67.556-20.44c-8.251,0-16.577,0.848-24.745,2.51
		c-32.156,6.544-59.839,25.229-77.95,52.593c-18.11,27.365-24.481,60.166-17.938,92.322c11.599,56.997,62.214,98.413,120.351,98.413
		h0.015c7.157,0,14.368-0.672,21.477-1.942c1.016-0.181,2.029-0.375,3.04-0.581c32.106-6.534,59.772-25.262,77.903-52.658
		s24.519-60.163,17.985-92.268C345.788,148.473,327.114,120.792,299.75,102.681z M342.155,246.889
		c-1.028,2.693-2.158,5.355-3.389,7.981c-0.821,1.751-1.686,3.486-2.596,5.203c-0.91,1.718-1.865,3.418-2.863,5.099
		c-0.999,1.681-2.042,3.344-3.129,4.987c-17.395,26.281-43.935,44.229-74.73,50.495c-1.94,0.395-3.891,0.744-5.847,1.045
		c-5.868,0.904-11.791,1.379-17.676,1.379h-0.014c-55.771,0-104.324-39.732-115.45-94.409c-6.277-30.848-0.166-62.337,17.208-88.588
		c17.373-26.251,43.93-44.165,74.777-50.441c7.841-1.596,15.831-2.405,23.748-2.405c23.003,0,45.409,6.788,64.796,19.618
		c1.641,1.086,3.249,2.208,4.824,3.364c1.575,1.156,3.116,2.347,4.623,3.572c4.522,3.674,8.736,7.649,12.62,11.894
		c14.244,15.563,24.059,34.746,28.374,55.954c1.567,7.699,2.359,15.438,2.394,23.128c0.061,13.457-2.196,26.759-6.677,39.421
		C342.829,245.09,342.498,245.991,342.155,246.889z"/><path d="M153.797,247.912c0.634,0,1.275-0.064,1.909-0.192c8.353-1.7,15.549-6.558,20.264-13.68
		c4.713-7.123,6.373-15.646,4.673-23.997c-1.429-7.02-5.233-13.428-10.714-18.043c-1.95-1.643-4.412-2.422-6.962-2.209
		c-2.538,0.218-4.84,1.411-6.48,3.36c-1.642,1.949-2.426,4.421-2.208,6.96c0.217,2.539,1.41,4.842,3.359,6.482
		c2.234,1.882,3.725,4.391,4.308,7.254c0.684,3.358,0.014,6.79-1.888,9.661c-1.9,2.872-4.796,4.829-8.154,5.512
		c-5.154,1.049-8.495,6.096-7.447,11.252C145.358,244.699,149.287,247.912,153.797,247.912z M152.9,233.921
		c4.668-0.949,8.69-3.667,11.328-7.652s3.567-8.75,2.617-13.418c-0.811-3.98-2.881-7.466-5.986-10.081
		c-0.928-0.781-1.495-1.877-1.599-3.085s0.27-2.385,1.052-3.312c0.78-0.928,1.875-1.495,3.083-1.599
		c0.132-0.012,0.264-0.018,0.396-0.018c1.067,0,2.091,0.372,2.918,1.068c4.622,3.893,7.83,9.296,9.034,15.216
		c1.435,7.043,0.034,14.231-3.942,20.24c-3.978,6.008-10.047,10.106-17.087,11.539c-2.479,0.499-4.868-1.141-5.357-3.544
		C148.857,236.823,150.447,234.42,152.9,233.921z"/><path d="M337.255,189.173l-0.023,0.002c-0.269-1.762-0.582-3.523-0.94-5.282
		c-5.672-27.872-21.857-51.867-45.577-67.564c-23.719-15.698-52.133-21.22-80.002-15.549c-1.563,0.318-3.111,0.674-4.649,1.058
		l-0.008-0.023l-1.797,0.492c-3.007,0.805-5.965,1.729-8.863,2.781l-0.004-0.012l-0.84,0.33
		c-19.435,7.241-36.242,19.956-48.608,36.931c-0.045,0.061-0.088,0.124-0.132,0.185c-0.911,1.257-1.803,2.533-2.665,3.835
		c-0.031,0.047-0.06,0.094-0.091,0.141c-0.355,0.539-0.715,1.097-1.085,1.684c-0.602,0.95-1.19,1.907-1.76,2.872l-0.585,0.966
		l0.019,0.013c-8.846,15.331-13.652,32.346-14.165,49.757c-0.006,0.173-0.012,0.345-0.017,0.518
		c-0.01,0.432-0.017,0.865-0.022,1.297c-0.009,0.58-0.013,1.16-0.013,1.74c0,0.069,0.001,0.137,0.001,0.206
		c0.044,13.031,2.485,25.958,7.252,38.186c7.892,20.418,21.869,37.861,40.493,50.187c17.64,11.675,37.872,17.721,58.551,17.721
		c7.126,0,14.309-0.719,21.451-2.172c25.658-5.221,48.024-19.358,63.663-40.073l0.021,0.014l0.706-0.979
		c0.667-0.905,1.32-1.824,1.962-2.753c0.43-0.618,0.834-1.213,1.214-1.786c0.003-0.005,0.006-0.01,0.009-0.014
		c0.844-1.276,1.653-2.568,2.438-3.87c0.048-0.08,0.098-0.159,0.146-0.239c12.439-20.752,17.374-44.723,14.171-68.632
		L337.255,189.173z M332.78,216.606c-0.155,1.358-0.336,2.712-0.546,4.061c-0.019,0.122-0.041,0.244-0.06,0.366
		c-0.194,1.222-0.413,2.44-0.651,3.654c-0.041,0.206-0.079,0.413-0.122,0.619c-0.215,1.056-0.455,2.107-0.703,3.156
		c-0.111,0.468-0.22,0.937-0.338,1.403c-0.226,0.898-0.469,1.791-0.719,2.682c-0.194,0.688-0.395,1.375-0.604,2.058
		c-0.049,0.162-0.102,0.322-0.152,0.483c-3.039,9.773-7.532,19.002-13.274,27.382c-7.302-5.583-12.287-13.524-14.136-22.609v0.001
		c-2.027-9.962-0.054-20.116,5.557-28.594c5.61-8.477,14.187-14.262,24.148-16.289c0.559-0.113,1.13-0.216,1.71-0.305
		c0.001,0.011,0.002,0.022,0.004,0.032c0.146,1.407,0.26,2.815,0.346,4.222c0.005,0.077,0.01,0.154,0.014,0.231
		c0.341,5.759,0.188,11.513-0.447,17.201C332.799,216.441,332.79,216.523,332.78,216.606z M146.46,150.446
		c0.299-0.459,0.638-0.903,0.921-1.33c8.226-12.43,19.033-22.785,31.545-30.46c-0.118,2.268-0.826,4.477-2.117,6.426
		c-1.9,2.872-4.796,4.829-8.154,5.512c-5.154,1.049-8.495,6.096-7.447,11.252c0.901,4.427,4.83,7.64,9.341,7.64
		c0.634,0,1.275-0.064,1.909-0.192c8.353-1.7,15.549-6.558,20.264-13.68c4.713-7.122,6.373-15.645,4.674-23.996
		c-0.111-0.548-0.255-1.115-0.412-1.692c1.954-0.719,3.925-1.401,5.929-2.001c0.231,0.836,0.721,1.662,0.721,2.473v0.002
		c2,9.961-0.071,20.115-5.683,28.593c-5.61,8.477-14.312,14.262-24.273,16.288c-9.477,1.928-19.075,0.247-27.28-4.737
		C146.419,150.51,146.44,150.478,146.46,150.446z M192.496,112.614c1.434,7.044,0.033,14.231-3.943,20.24
		c-3.978,6.008-10.047,10.106-17.087,11.539c-2.479,0.5-4.868-1.142-5.357-3.544c-0.499-2.453,1.091-4.855,3.544-5.354
		c4.668-0.949,8.69-3.667,11.328-7.652c2.369-3.579,3.356-7.787,2.846-11.986c2.757-1.487,5.587-2.846,8.481-4.076
		C192.376,112.063,192.441,112.341,192.496,112.614z M133.112,181.989c2.759-1.299,5.659-2.263,8.637-2.868
		c20.559-4.191,40.697,9.141,44.881,29.704c4.186,20.562-9.14,40.696-29.703,44.881c-4.655,0.947-9.351,1.025-13.976,0.235
		c-2.22-4.054-4.145-8.225-5.781-12.481c-0.081-0.214-0.161-0.428-0.241-0.642c-0.421-1.118-0.817-2.243-1.198-3.372
		c-0.211-0.633-0.414-1.27-0.613-1.909c-0.106-0.338-0.207-0.676-0.309-1.015c-0.902-3-1.677-6.054-2.309-9.161
		c-1.141-5.606-1.801-11.234-2-16.839c-0.035-1.05-0.066-2.1-0.068-3.151c-0.001-0.279,0.005-0.557,0.006-0.836
		C130.486,197.008,131.365,189.451,133.112,181.989z M280.032,294.498c-0.156,0.084-0.314,0.168-0.471,0.251
		c-2.969,1.573-6.016,2.984-9.118,4.25c5.431-7.15,7.717-16.418,5.837-25.66v-0.001c-1.429-7.019-5.233-13.427-10.713-18.042
		c-1.949-1.641-4.415-2.426-6.961-2.209c-2.539,0.218-4.842,1.411-6.482,3.36c-1.642,1.948-2.426,4.42-2.209,6.959
		c0.218,2.539,1.411,4.842,3.36,6.483c2.235,1.884,3.726,4.392,4.307,7.253c1.415,6.952-3.091,13.76-10.043,15.175
		c-5.154,1.05-8.494,6.097-7.445,11.251c0.188,0.922,0.526,1.793,0.968,2.605c-7.99,0.731-16.07,0.53-24.041-0.647
		c-4.725-5.104-7.948-11.39-9.34-18.229c-4.185-20.563,9.142-40.697,29.704-44.882c20.56-4.191,40.698,9.141,44.882,29.704
		C283.808,279.69,283.034,287.408,280.032,294.498z M244.995,302.573c-0.5-2.454,1.09-4.855,3.543-5.354
		c9.653-1.966,15.909-11.418,13.945-21.071c-0.809-3.978-2.879-7.464-5.986-10.081c-0.928-0.781-1.496-1.877-1.599-3.085
		c-0.104-1.209,0.27-2.385,1.051-3.312s1.877-1.495,3.085-1.599c0.133-0.012,0.265-0.018,0.396-0.018
		c1.067,0,2.091,0.372,2.917,1.068c4.621,3.893,7.83,9.296,9.034,15.216v-0.001c2.324,11.423-2.877,22.907-12.957,28.719
		c-3.769,1.015-7.592,1.811-11.449,2.391C245.948,304.788,245.238,303.773,244.995,302.573z M286.625,290.617
		c1.672-6.336,1.871-12.963,0.543-19.493c-4.735-23.263-27.501-38.336-50.779-33.607c-23.265,4.735-38.341,27.514-33.607,50.779
		c1.167,5.732,3.489,11.108,6.779,15.864c-11.833-2.68-23.204-7.51-33.624-14.406c-12.177-8.059-22.266-18.416-29.833-30.406
		c1.062,0.08,2.126,0.133,3.191,0.133c2.877,0,5.76-0.292,8.629-0.875c11.27-2.294,20.972-8.839,27.319-18.43
		s8.58-21.079,6.287-32.35c-2.294-11.27-8.839-20.972-18.43-27.319s-21.082-8.582-32.349-6.287
		c-2.057,0.419-4.075,1.001-6.049,1.715c2.202-7.3,5.249-14.379,9.11-21.121c6.774,4.114,14.383,6.247,22.172,6.246
		c2.884,0,5.793-0.291,8.69-0.881c11.271-2.293,20.973-8.838,27.32-18.43c6.348-9.59,8.58-21.079,6.287-32.348
		c-0.187-0.918-0.416-1.853-0.676-2.794c1.358-0.334,2.725-0.648,4.103-0.929c6.81-1.386,13.651-2.07,20.444-2.07
		c19.707,0,38.992,5.763,55.803,16.888c22.604,14.961,38.031,37.829,43.436,64.392c0.328,1.611,0.612,3.221,0.86,4.83
		c-0.7,0.106-1.394,0.223-2.068,0.361c-11.271,2.293-20.974,8.838-27.321,18.43c-6.347,9.59-8.58,21.079-6.287,32.349v0.001
		c2.102,10.326,7.791,19.339,16.115,25.66C305.54,275.935,296.745,284.129,286.625,290.617z"/><path d="M294.18,166.25c-4.735-23.266-27.522-38.343-50.778-33.606c-23.266,4.733-38.342,27.513-33.608,50.779
		c4.148,20.381,22.141,34.476,42.18,34.476c2.836,0,5.715-0.282,8.6-0.869C283.837,212.294,298.913,189.516,294.18,166.25
		L294.18,166.25z M259.574,212.129c-9.956,2.031-20.114,0.056-28.592-5.557c-8.478-5.61-14.263-14.186-16.289-24.146
		c-4.185-20.564,9.142-40.698,29.705-44.882c2.553-0.521,5.119-0.776,7.667-0.776c7.39,0,14.621,2.16,20.925,6.333
		c8.478,5.61,14.263,14.186,16.289,24.147v-0.001C293.464,187.811,280.138,207.944,259.574,212.129z"/><path d="M272.579,150.423c-1.948-1.642-4.418-2.43-6.96-2.208c-2.539,0.217-4.842,1.41-6.482,3.359
		c-1.642,1.948-2.426,4.42-2.209,6.959c0.218,2.539,1.411,4.842,3.36,6.483c2.234,1.883,3.725,4.392,4.307,7.254
		c0.684,3.358,0.014,6.79-1.888,9.661c-1.9,2.872-4.796,4.829-8.153,5.512c-5.155,1.049-8.496,6.097-7.447,11.252
		c0.901,4.427,4.83,7.64,9.341,7.64c0.634,0,1.275-0.064,1.909-0.192c8.354-1.7,15.549-6.558,20.263-13.68
		c4.713-7.122,6.373-15.645,4.674-23.997C281.864,161.447,278.059,155.038,272.579,150.423z M274.449,189.703
		c-3.977,6.008-10.045,10.106-17.086,11.539c-2.479,0.501-4.868-1.141-5.357-3.544c-0.499-2.453,1.091-4.855,3.544-5.354
		c4.667-0.949,8.689-3.667,11.327-7.652s3.567-8.75,2.618-13.418c-0.811-3.979-2.88-7.465-5.986-10.081
		c-0.928-0.781-1.496-1.877-1.599-3.085c-0.104-1.209,0.27-2.385,1.051-3.312s1.877-1.495,3.085-1.599
		c0.133-0.012,0.265-0.017,0.396-0.017c1.067,0,2.091,0.372,2.917,1.067c4.621,3.893,7.83,9.296,9.034,15.216
		C279.826,176.507,278.425,183.695,274.449,189.703z"/></svg>