<svg xmlns="http://www.w3.org/2000/svg" enable-background="new 0 0 74 74" version="1.0" viewBox="0 0 74 74"><path d="M29.78 59.86c1.68 0 3.04-1.37 3.04-3.04s-1.37-3.04-3.04-3.04c-1.68 0-3.04 1.37-3.04 3.04S28.1 59.86 29.78 59.86zM29.78 54.78c1.13 0 2.04.92 2.04 2.04 0 1.13-.92 2.04-2.04 2.04-1.13 0-2.04-.92-2.04-2.04C27.73 55.69 28.65 54.78 29.78 54.78zM21.64 39.21l7.47 2.52c.05.02.11.03.16.03.13 0 .26-.05.35-.15.13-.13.18-.33.12-.51l-2.43-7.22c.92-1.74 1.41-3.69 1.41-5.67 0-6.68-5.44-12.11-12.12-12.11-6.67 0-12.1 5.43-12.1 12.11 0 6.67 5.43 12.1 12.1 12.1C18.35 40.31 20.04 39.94 21.64 39.21zM5.5 28.21c0-6.13 4.98-11.11 11.1-11.11 6.13 0 11.12 4.98 11.12 11.11 0 1.88-.48 3.74-1.39 5.38-.07.12-.08.27-.04.4l2.18 6.47-6.71-2.26c-.05-.02-.11-.03-.16-.03-.07 0-.15.02-.21.05-1.52.72-3.13 1.08-4.8 1.08C10.48 39.31 5.5 34.33 5.5 28.21z"/><path d="M24.08,32.43V31.7c0-0.14-0.03-0.27-0.08-0.39c0.29-0.29,0.46-0.69,0.46-1.12c0-0.43-0.17-0.82-0.44-1.11
		c0.27-0.29,0.44-0.67,0.44-1.1c0-0.46-0.2-0.88-0.51-1.17c0.08-0.16,0.13-0.32,0.11-0.5c-0.29-3.37-3.06-5.91-6.45-5.91h-1.49
		c-1.74,0-3.36,0.67-4.58,1.9c-1.08,1.08-1.74,2.5-1.87,4.01c-0.02,0.18,0.03,0.34,0.11,0.5c-0.31,0.29-0.51,0.71-0.51,1.17
		c0,0.43,0.17,0.81,0.45,1.1c-0.28,0.29-0.45,0.68-0.45,1.11c0,0.52,0.26,1,0.68,1.29c-0.02,0.07-0.04,0.14-0.04,0.21v0.72
		c0,1.37,1.11,2.48,2.48,2.48h9.23C22.96,34.9,24.08,33.79,24.08,32.43z M10.89,30.71c-0.08,0-0.16,0.03-0.24,0.05
		c-0.23-0.09-0.39-0.31-0.39-0.56c0-0.34,0.27-0.61,0.61-0.61h11.98c0.33,0,0.6,0.27,0.6,0.61c0,0.22-0.11,0.41-0.3,0.52
		c0,0,0,0-0.01,0.01c-0.02,0-0.04-0.01-0.06-0.01H10.89z M10.26,27.99c0-0.34,0.27-0.61,0.61-0.61h11.98c0.33,0,0.6,0.27,0.6,0.61
		c0,0.34-0.26,0.6-0.6,0.6H10.87C10.53,28.59,10.26,28.32,10.26,27.99z M12.24,23.01c1.02-1.03,2.4-1.6,3.87-1.6h1.49
		c2.86,0,5.21,2.15,5.45,4.97c-0.02,0-0.04,0.01-0.06,0.01c-0.05,0-0.09-0.01-0.14-0.01H10.87c-0.07,0-0.14,0.01-0.21,0.02
		C10.77,25.12,11.33,23.92,12.24,23.01z M10.89,32.43l-0.01-0.72h12.19v0.72c0,0.81-0.66,1.48-1.48,1.48h-9.23
		C11.56,33.9,10.89,33.24,10.89,32.43z"/><path d="M69.5,52.09c0-3.07-2.09-5.67-5.08-6.34l-0.64-0.14V29.01v-3.5v-5.12c0-8.76-7.13-15.89-15.89-15.89
		s-15.89,7.13-15.89,15.89v4.59c-0.03,0.17-0.05,0.35-0.05,0.53v3.5c0,0.18,0.03,0.36,0.05,0.53V44.3H11.45
		c-0.76,0-1.48,0.33-1.98,0.9s-0.73,1.33-0.63,2.08l2.69,19.95c0.17,1.3,1.29,2.27,2.6,2.27l52.47,0c1.6,0,2.9-1.3,2.9-2.9V52.09z
		 M68.5,52.09v4.74l-4.76,2.04c-1.07,0.46-1.76,1.5-1.76,2.67v6.96H47.38c0.28-0.36,0.48-0.79,0.54-1.27l2.23-16.53
		c2.07-1.41,4.64-3.56,5.99-6.15c0.53,0.35,1.13,0.62,1.79,0.77l6.28,1.41C66.73,47.29,68.5,49.49,68.5,52.09z M49.98,45.19
		c-0.5-0.57-1.22-0.9-1.98-0.9h-8.05c1.25-0.98,2.04-2.48,2.04-4.15v-0.01c1.58,1.42,3.52,2.36,5.93,2.36c2.37,0,4.3-0.93,5.86-2.33
		c0.01,1.45,0.6,2.76,1.56,3.72c-1.11,2.26-3.33,4.21-5.02,5.45l0.28-2.07C50.71,46.52,50.48,45.77,49.98,45.19z M32.99,25.02
		c0.23-1.07,1.18-1.88,2.32-1.88h0.81v8.24h-0.81c-1.14,0-2.09-0.81-2.32-1.88V25.02z M35.31,22.14c-0.19,0-0.36,0.03-0.54,0.05
		v-0.77c0-7.21,5.87-13.08,13.09-13.08c7.21,0,13.08,5.87,13.08,13.08v0.77c-0.18-0.03-0.35-0.05-0.54-0.05H59.1
		c-0.28,0-0.5,0.22-0.5,0.5v0.29c-2.9-1.47-4.94-3.55-6.04-6.22c-0.06-0.15-0.2-0.26-0.36-0.3c-0.16-0.03-0.33,0.01-0.45,0.13
		c-3.68,3.46-8.61,5.61-14.63,6.4v-0.29c0-0.28-0.22-0.5-0.5-0.5H35.31z M62.78,29.01c0,1.07-0.71,1.96-1.69,2.26v-0.84
		c0-0.28-0.22-0.5-0.5-0.5s-0.5,0.22-0.5,0.5v0.96H59.6v-8.24h0.81c1.31,0,2.37,1.06,2.37,2.37V29.01z M58.63,32.02
		c0.06,0.2,0.25,0.36,0.47,0.36h0.99v0.42c0,1.11-0.72,2.07-1.78,2.39l-1.14,0.34C57.76,34.36,58.24,33.15,58.63,32.02z
		 M37.12,23.95c6.02-0.77,10.99-2.85,14.79-6.21c1.31,2.73,3.56,4.85,6.68,6.32v4.39c-0.43,1.87-1.28,4.85-2.78,7.5l-5.04,1.51
		c-0.55-0.63-1.49-1.04-2.55-1.04c-1.69,0-3.06,1.04-3.06,2.33s1.37,2.33,3.06,2.33c1.69,0,3.06-1.04,3.06-2.33
		c0-0.13-0.02-0.26-0.05-0.38l3.78-1.13c-1.66,2.4-3.95,4.27-7.09,4.27c-7.3,0-10.1-10.23-10.8-13.45V23.95z M50.28,38.74
		c0,0.72-0.95,1.33-2.06,1.33c-1.12,0-2.06-0.61-2.06-1.33s0.95-1.33,2.06-1.33C49.34,37.41,50.28,38.02,50.28,38.74z M58.14,44.34
		c-1.98-0.44-3.36-2.17-3.36-4.19v-0.99c0.64-0.73,1.2-1.53,1.7-2.37l2.11-0.63c1.49-0.45,2.49-1.8,2.49-3.35v-0.5
		c0.65-0.13,1.23-0.46,1.69-0.91v13.98L58.14,44.34z M47.89,5.5c8.21,0,14.89,6.68,14.89,14.89v2.73c-0.24-0.24-0.53-0.43-0.84-0.59
		v-1.1c0-7.76-6.32-14.08-14.08-14.08c-7.77,0-14.09,6.32-14.09,14.08v1.11c-0.28,0.15-0.55,0.33-0.78,0.54v-2.68
		C32.99,12.18,39.67,5.5,47.89,5.5z M32.99,31.45c0.6,0.58,1.42,0.93,2.32,0.93h1.31c0.28,0,0.5-0.22,0.5-0.5v-0.04
		c0.8,2.42,2.03,5.18,3.87,7.28v1.03c0,1.96-1.32,3.66-3.22,4.15h-4.77V31.45z M12.52,67.09L9.84,47.14
		c-0.06-0.46,0.08-0.93,0.39-1.29s0.75-0.56,1.22-0.56H48c0.47,0,0.91,0.2,1.22,0.56c0.31,0.35,0.45,0.82,0.39,1.29l-2.69,19.95
		c-0.11,0.79-0.79,1.39-1.59,1.4l-31.2,0C13.32,68.5,12.63,67.89,12.52,67.09z M66.6,68.5h-3.61v-6.96c0-0.76,0.45-1.45,1.15-1.75
		l4.36-1.87v8.68C68.5,67.64,67.65,68.5,66.6,68.5z"/></svg>