<svg xmlns="http://www.w3.org/2000/svg" enable-background="new 0 0 1024 1024" viewBox="0 0 1024 1024"><path fill="none" stroke="#000" stroke-miterlimit="10" stroke-width="20" d="M625.87,174.32c0,16.28-6.21,32.56-18.64,44.98l-91.92,91.92c-1.83,1.83-4.8,1.83-6.63,0l-91.92-91.92
		c-24.84-24.84-24.84-65.12,0-89.96c12.43-12.42,28.7-18.63,44.98-18.63c16.28,0,32.56,6.21,44.98,18.63l5.28,5.28l5.27-5.28
		c24.84-24.84,65.12-24.84,89.96,0C619.66,141.76,625.87,158.04,625.87,174.32z"/><line x1="340.39" x2="309.39" y1="493.41" y2="462.41" fill="none" stroke="#000" stroke-linecap="square" stroke-miterlimit="10" stroke-width="20"/><line x1="340.39" x2="228.73" y1="611.14" y2="499.47" fill="none" stroke="#000" stroke-linecap="square" stroke-miterlimit="10" stroke-width="20"/><circle cx="246.22" cy="274.2" r="75.83" fill="none" stroke="#000" stroke-linecap="round" stroke-miterlimit="10" stroke-width="20"/><path fill="none" stroke="#000" stroke-miterlimit="10" stroke-width="20" d="M511.83,586.27c0,8.41-3.3,16.09-8.71,21.75c-5.41,5.67-12.91,9.32-21.32,9.71l-109.3,5.93
		c-11.92,0.55-23.53-3.94-31.98-12.39l-0.12-0.12v97.3c0,4.91-3.98,8.88-8.88,8.88H160.93c-4.91,0-8.88-3.98-8.88-8.88V473.08
		c0-39.78,32.25-72.04,72.04-72.04h44.27c39.78,0,72.04,32.25,72.04,72.04v20.32l47.56,47.56c4.22,4.22,9.82,6.77,15.77,7.17
		l78.75,6.71C498.99,555.97,511.83,569.7,511.83,586.27z"/><path fill="none" stroke="#000" stroke-miterlimit="10" stroke-width="20" d="M186.72,879.79V717.32h118.99v162.47c0,18.51-15,33.51-33.51,33.51h-51.98
		C201.72,913.29,186.72,898.29,186.72,879.79z"/><line x1="683.61" x2="714.61" y1="490.82" y2="459.82" fill="none" stroke="#000" stroke-linecap="square" stroke-miterlimit="10" stroke-width="20"/><line x1="683.61" x2="795.27" y1="608.55" y2="496.88" fill="none" stroke="#000" stroke-linecap="square" stroke-miterlimit="10" stroke-width="20"/><circle cx="777.78" cy="271.61" r="75.83" fill="none" stroke="#000" stroke-linecap="round" stroke-miterlimit="10" stroke-width="20"/><path fill="none" stroke="#000" stroke-miterlimit="10" stroke-width="20" d="M512.17 583.68c0 8.41 3.3 16.09 8.71 21.74 5.41 5.67 12.91 9.32 21.32 9.71l109.3 5.93c11.92.55 23.53-3.94 31.98-12.39l.12-.12v97.3c0 4.91 3.98 8.88 8.88 8.88h170.58c4.91 0 8.88-3.98 8.88-8.88V470.49c0-39.78-32.25-72.04-72.04-72.04h-44.27c-39.78 0-72.04 32.25-72.04 72.04v20.32l-47.56 47.56c-4.22 4.22-9.82 6.77-15.77 7.17l-78.75 6.71C525.01 553.38 512.17 567.11 512.17 583.68zM837.28 877.2V714.73H718.29V877.2c0 18.51 15 33.51 33.51 33.51h51.98C822.28 910.7 837.28 895.7 837.28 877.2z"/></svg>